<?xml version="1.0" standalone="no"?>
<!DOCTYPE svg PUBLIC "-//W3C//DTD SVG 20010904//EN"
 "http://www.w3.org/TR/2001/REC-SVG-20010904/DTD/svg10.dtd">
<svg version="1.0" xmlns="http://www.w3.org/2000/svg"
 width="500.000000pt" height="500.000000pt" viewBox="0 0 500.000000 500.000000"
 preserveAspectRatio="xMidYMid meet">

<g transform="translate(0.000000,500.000000) scale(0.100000,-0.100000)"
fill="currentColor" stroke="none">
<path d="M2453 4938 c-12 -7 -78 -88 -145 -180 -240 -325 -656 -887 -910
-1230 -833 -1123 -949 -1282 -954 -1303 -8 -32 13 -74 41 -85 15 -6 147 -10
306 -10 l279 0 0 -1005 c0 -992 0 -1005 20 -1025 20 -20 33 -20 1415 -20 1382
0 1395 0 1415 20 20 20 20 33 20 1025 l0 1005 269 0 c256 0 269 1 295 21 19
15 26 30 26 54 0 35 -49 103 -1085 1500 -94 127 -219 295 -278 375 -59 80
-170 231 -248 335 -77 105 -186 253 -242 329 -56 77 -113 152 -127 167 -30 34
-67 44 -97 27z m313 -574 c154 -206 308 -415 344 -464 36 -49 157 -213 270
-365 113 -152 234 -316 270 -365 194 -263 257 -349 444 -600 112 -151 202
-278 199 -282 -2 -5 -73 -8 -158 -8 l-154 0 -24 33 c-13 17 -48 66 -79 107
-30 41 -91 125 -135 185 -44 61 -146 201 -226 312 l-147 201 0 198 c0 257 10
244 -179 244 -75 0 -141 4 -147 8 -5 4 -46 57 -90 117 -245 339 -407 557 -427
573 -8 7 -31 12 -49 10 -28 -3 -42 -15 -96 -88 -64 -86 -259 -351 -385 -526
l-68 -94 -138 0 c-198 0 -185 17 -191 -247 l-5 -210 -102 -139 c-189 -257
-263 -358 -328 -449 -35 -49 -88 -121 -117 -160 l-53 -70 -158 -3 c-106 -2
-157 1 -157 8 0 6 44 70 98 143 119 160 292 392 432 582 57 77 158 214 224
303 67 90 188 255 270 365 82 111 166 225 186 252 89 120 394 532 490 662 58
79 106 143 106 143 1 0 127 -169 280 -376z m-145 -484 c61 -85 135 -186 164
-225 28 -38 55 -76 59 -82 6 -10 -68 -13 -353 -13 -199 0 -361 4 -361 8 0 4
35 55 78 113 42 58 122 167 177 242 77 105 103 133 112 124 6 -7 62 -82 124
-167z m597 -642 l2 -168 -730 0 -730 0 0 170 0 170 728 -2 727 -3 3 -167z
m112 -333 c4 -3 53 -67 107 -142 55 -76 157 -216 226 -311 l127 -173 0 -1024
0 -1025 -235 0 -235 0 0 908 c0 862 -1 913 -19 983 -29 113 -57 179 -107 255
-159 239 -407 374 -689 374 -283 0 -529 -133 -689 -374 -41 -62 -73 -133 -108
-241 -10 -31 -14 -248 -18 -970 l-5 -930 -232 -3 -233 -2 0 1048 0 1049 181
249 c100 137 197 269 215 294 l32 45 837 -2 c460 -2 840 -5 845 -8z m-706
-319 c209 -41 387 -175 476 -360 71 -149 70 -130 70 -1116 l0 -880 -665 0
-666 0 3 918 3 917 24 65 c37 105 82 180 147 250 166 176 381 249 608 206z"/>
</g>
</svg>
