<?xml version="1.0" standalone="no"?>
<!DOCTYPE svg PUBLIC "-//W3C//DTD SVG 20010904//EN"
 "http://www.w3.org/TR/2001/REC-SVG-20010904/DTD/svg10.dtd">
<svg version="1.0" xmlns="http://www.w3.org/2000/svg"
 width="500.000000pt" height="500.000000pt" viewBox="0 0 500.000000 500.000000"
 preserveAspectRatio="xMidYMid meet">

<g transform="translate(0.000000,500.000000) scale(0.100000,-0.100000)"
fill="#000000" stroke="none">
<path d="M442 4858 c-25 -12 -37 -46 -28 -80 8 -34 447 -468 473 -468 38 0 73
38 73 78 0 34 -14 50 -223 259 -233 233 -239 238 -295 211z"/>
<path d="M4178 4642 c-243 -243 -250 -253 -209 -303 13 -16 29 -23 55 -23 35
0 50 13 258 222 209 208 222 223 222 258 0 26 -7 42 -23 55 -50 41 -60 34
-303 -209z"/>
<path d="M2220 4826 c-610 -109 -1069 -565 -1186 -1181 -26 -135 -24 -368 4
-512 32 -162 63 -251 138 -398 74 -144 144 -237 282 -373 l134 -134 54 -163
c60 -186 103 -354 135 -530 20 -109 23 -164 28 -607 5 -379 9 -490 19 -500 9
-9 54 -15 135 -18 l122 -5 7 -44 c16 -92 90 -177 180 -207 38 -12 82 -15 206
-12 153 3 158 4 211 33 69 38 117 102 133 178 l12 57 112 0 c95 0 115 3 135
19 l24 19 6 499 c5 488 6 501 32 636 33 170 73 317 138 513 l50 150 74 62 c89
74 182 181 260 298 280 420 313 976 85 1435 -196 396 -556 675 -1000 774 -101
23 -425 29 -530 11z m461 -151 c170 -28 347 -100 504 -203 90 -59 287 -256
347 -348 101 -152 173 -330 203 -501 19 -113 20 -346 0 -448 -59 -311 -214
-578 -449 -774 l-81 -68 -52 -154 c-97 -284 -150 -502 -179 -729 -7 -63 -14
-118 -14 -122 0 -4 -227 -8 -504 -8 l-503 0 -7 87 c-15 186 -76 451 -165 720
-69 207 -73 216 -130 257 -70 52 -212 205 -267 289 -101 152 -166 311 -200
483 -25 123 -25 368 -1 484 76 365 280 662 593 862 159 102 373 170 599 192
62 6 211 -4 306 -19z m279 -3560 l0 -55 -500 0 -500 0 0 55 0 55 500 0 500 0
0 -55z m0 -255 l0 -50 -500 0 -500 0 0 50 0 50 500 0 500 0 0 -50z m0 -250 l0
-50 -500 0 -500 0 0 50 0 50 500 0 500 0 0 -50z m-280 -217 c-1 -28 -24 -63
-56 -84 -25 -16 -47 -19 -171 -19 -137 0 -143 1 -171 25 -30 25 -56 78 -45 89
4 3 105 6 225 6 201 0 218 -1 218 -17z"/>
<path d="M280 3268 c-26 -28 -26 -72 0 -98 19 -19 33 -20 204 -20 180 0 185 1
200 22 22 31 20 74 -4 98 -19 19 -33 20 -200 20 -172 0 -180 -1 -200 -22z"/>
<path d="M4231 3264 c-12 -15 -21 -34 -21 -44 0 -10 9 -29 21 -44 l20 -26 183
0 c206 0 216 3 216 73 0 62 -18 67 -221 67 l-178 0 -20 -26z"/>
<path d="M745 2015 c-258 -258 -266 -267 -263 -302 4 -46 43 -79 84 -69 27 7
502 473 538 528 32 48 -5 108 -66 108 -23 0 -74 -46 -293 -265z"/>
<path d="M3822 2257 c-49 -52 -44 -60 246 -349 290 -291 296 -295 347 -243 52
51 48 56 -242 347 -235 236 -271 268 -299 268 -19 0 -39 -9 -52 -23z"/>
</g>
</svg>
