<svg id="visual" viewBox="0 0 960 540" width="960" height="540" xmlns="http://www.w3.org/2000/svg" xmlns:xlink="http://www.w3.org/1999/xlink" version="1.1"><g stroke-width="1" stroke-linejoin="bevel"><path d="M511.3 236L511.3 214L406.7 276Z" fill="#004da4" stroke="#004da4"></path><path d="M511.3 214L399.7 150L406.7 276Z" fill="#003567" stroke="#003567"></path><path d="M399.7 150L340 258L406.7 276Z" fill="#002340" stroke="#002340"></path><path d="M511.3 214L428.7 110L399.7 150Z" fill="#00101c" stroke="#00101c"></path><path d="M310 361L427.7 356L406.7 276Z" fill="#003d7b" stroke="#003d7b"></path><path d="M406.7 276L427.7 356L511.3 236Z" fill="#011a2d" stroke="#011a2d"></path><path d="M296 110L315 157L399.7 150Z" fill="#0055b9" stroke="#0055b9"></path><path d="M399.7 150L315 157L340 258Z" fill="#011a2d" stroke="#011a2d"></path><path d="M427.7 356L506.3 368L511.3 236Z" fill="#00458f" stroke="#00458f"></path><path d="M642 122L526.3 92L511.3 214Z" fill="#0465e4" stroke="#0465e4"></path><path d="M511.3 214L526.3 92L428.7 110Z" fill="#011a2d" stroke="#011a2d"></path><path d="M634 263L511.3 214L511.3 236Z" fill="#005dcf" stroke="#005dcf"></path><path d="M428.7 110L296 110L399.7 150Z" fill="#004da4" stroke="#004da4"></path><path d="M207.3 347L310 361L340 258Z" fill="#005dcf" stroke="#005dcf"></path><path d="M393.7 0L296 110L428.7 110Z" fill="#00458f" stroke="#00458f"></path><path d="M506.3 368L634 263L511.3 236Z" fill="#0465e4" stroke="#0465e4"></path><path d="M340 258L310 361L406.7 276Z" fill="#0465e4" stroke="#0465e4"></path><path d="M427.7 356L439.7 424L506.3 368Z" fill="#00101c" stroke="#00101c"></path><path d="M246.3 201L340 258L315 157Z" fill="#002340" stroke="#002340"></path><path d="M319 446L439.7 424L427.7 356Z" fill="#00101c" stroke="#00101c"></path><path d="M506.3 368L644 363L634 263Z" fill="#00458f" stroke="#00458f"></path><path d="M244.3 112L246.3 201L315 157Z" fill="#00458f" stroke="#00458f"></path><path d="M666 183L642 122L511.3 214Z" fill="#00101c" stroke="#00101c"></path><path d="M634 263L666 183L511.3 214Z" fill="#002340" stroke="#002340"></path><path d="M439.7 424L504.3 447L506.3 368Z" fill="#011a2d" stroke="#011a2d"></path><path d="M623 0L500.3 0L526.3 92Z" fill="#002c53" stroke="#002c53"></path><path d="M526.3 92L500.3 0L428.7 110Z" fill="#003d7b" stroke="#003d7b"></path><path d="M500.3 0L393.7 0L428.7 110Z" fill="#00101c" stroke="#00101c"></path><path d="M318 0L244.3 112L296 110Z" fill="#002340" stroke="#002340"></path><path d="M296 110L244.3 112L315 157Z" fill="#005dcf" stroke="#005dcf"></path><path d="M504.3 447L644 363L506.3 368Z" fill="#00101c" stroke="#00101c"></path><path d="M634 263L720.7 207L666 183Z" fill="#011a2d" stroke="#011a2d"></path><path d="M207.3 347L319 446L310 361Z" fill="#002340" stroke="#002340"></path><path d="M310 361L319 446L427.7 356Z" fill="#0465e4" stroke="#0465e4"></path><path d="M439.7 424L406.7 540L504.3 447Z" fill="#011a2d" stroke="#011a2d"></path><path d="M393.7 0L318 0L296 110Z" fill="#003d7b" stroke="#003d7b"></path><path d="M115.7 175L182.3 256L246.3 201Z" fill="#011a2d" stroke="#011a2d"></path><path d="M246.3 201L182.3 256L340 258Z" fill="#0465e4" stroke="#0465e4"></path><path d="M182.3 256L207.3 347L340 258Z" fill="#0465e4" stroke="#0465e4"></path><path d="M764.7 247L720.7 207L634 263Z" fill="#004da4" stroke="#004da4"></path><path d="M666 183L736.7 69L642 122Z" fill="#002c53" stroke="#002c53"></path><path d="M736.7 69L623 0L642 122Z" fill="#003d7b" stroke="#003d7b"></path><path d="M642 122L623 0L526.3 92Z" fill="#002c53" stroke="#002c53"></path><path d="M504.3 447L657 444L644 363Z" fill="#0055b9" stroke="#0055b9"></path><path d="M644 363L764.7 247L634 263Z" fill="#005dcf" stroke="#005dcf"></path><path d="M334 540L406.7 540L319 446Z" fill="#005dcf" stroke="#005dcf"></path><path d="M319 446L406.7 540L439.7 424Z" fill="#002340" stroke="#002340"></path><path d="M504.3 447L551.3 540L657 444Z" fill="#0055b9" stroke="#0055b9"></path><path d="M765.7 386L764.7 247L644 363Z" fill="#00458f" stroke="#00458f"></path><path d="M720.7 207L736.7 69L666 183Z" fill="#011a2d" stroke="#011a2d"></path><path d="M857.3 188L736.7 69L720.7 207Z" fill="#005dcf" stroke="#005dcf"></path><path d="M318 0L203.3 0L244.3 112Z" fill="#003567" stroke="#003567"></path><path d="M244.3 112L115.7 175L246.3 201Z" fill="#0055b9" stroke="#0055b9"></path><path d="M406.7 540L551.3 540L504.3 447Z" fill="#011a2d" stroke="#011a2d"></path><path d="M246.3 540L334 540L319 446Z" fill="#0055b9" stroke="#0055b9"></path><path d="M92.7 90L115.7 175L244.3 112Z" fill="#003567" stroke="#003567"></path><path d="M182.3 256L116.7 304L207.3 347Z" fill="#0055b9" stroke="#0055b9"></path><path d="M115.7 175L116.7 304L182.3 256Z" fill="#0465e4" stroke="#0465e4"></path><path d="M207.3 347L185.3 469L319 446Z" fill="#00101c" stroke="#00101c"></path><path d="M79.7 438L115.7 339L0 387Z" fill="#002c53" stroke="#002c53"></path><path d="M116.7 304L115.7 339L207.3 347Z" fill="#011a2d" stroke="#011a2d"></path><path d="M736.7 69L722.7 0L623 0Z" fill="#005dcf" stroke="#005dcf"></path><path d="M744.7 427L644 363L657 444Z" fill="#003d7b" stroke="#003d7b"></path><path d="M744.7 427L765.7 386L644 363Z" fill="#004da4" stroke="#004da4"></path><path d="M115.7 339L185.3 469L207.3 347Z" fill="#002c53" stroke="#002c53"></path><path d="M745.7 540L744.7 427L657 444Z" fill="#0465e4" stroke="#0465e4"></path><path d="M185.3 469L246.3 540L319 446Z" fill="#011a2d" stroke="#011a2d"></path><path d="M551.3 540L656 540L657 444Z" fill="#005dcf" stroke="#005dcf"></path><path d="M203.3 0L92.7 90L244.3 112Z" fill="#0055b9" stroke="#0055b9"></path><path d="M115.7 175L0 297L116.7 304Z" fill="#002c53" stroke="#002c53"></path><path d="M824.3 347L832.3 296L764.7 247Z" fill="#0465e4" stroke="#0465e4"></path><path d="M764.7 247L857.3 188L720.7 207Z" fill="#011a2d" stroke="#011a2d"></path><path d="M736.7 69L836.3 65L722.7 0Z" fill="#005dcf" stroke="#005dcf"></path><path d="M824.3 347L764.7 247L765.7 386Z" fill="#0055b9" stroke="#0055b9"></path><path d="M870.3 462L765.7 386L744.7 427Z" fill="#00101c" stroke="#00101c"></path><path d="M870.3 462L824.3 347L765.7 386Z" fill="#00458f" stroke="#00458f"></path><path d="M960 242L857.3 188L832.3 296Z" fill="#002c53" stroke="#002c53"></path><path d="M832.3 296L857.3 188L764.7 247Z" fill="#002c53" stroke="#002c53"></path><path d="M857.3 188L836.3 65L736.7 69Z" fill="#00458f" stroke="#00458f"></path><path d="M203.3 0L90.7 0L92.7 90Z" fill="#005dcf" stroke="#005dcf"></path><path d="M0 297L115.7 339L116.7 304Z" fill="#004da4" stroke="#004da4"></path><path d="M115.7 339L79.7 438L185.3 469Z" fill="#003567" stroke="#003567"></path><path d="M185.3 469L104.7 540L246.3 540Z" fill="#002c53" stroke="#002c53"></path><path d="M0 297L115.7 175L0 150Z" fill="#011a2d" stroke="#011a2d"></path><path d="M656 540L745.7 540L657 444Z" fill="#005dcf" stroke="#005dcf"></path><path d="M0 150L115.7 175L92.7 90Z" fill="#00101c" stroke="#00101c"></path><path d="M0 87L0 150L92.7 90Z" fill="#005dcf" stroke="#005dcf"></path><path d="M0 540L104.7 540L79.7 438Z" fill="#0465e4" stroke="#0465e4"></path><path d="M79.7 438L104.7 540L185.3 469Z" fill="#003d7b" stroke="#003d7b"></path><path d="M90.7 0L0 87L92.7 90Z" fill="#005dcf" stroke="#005dcf"></path><path d="M0 297L0 387L115.7 339Z" fill="#0055b9" stroke="#0055b9"></path><path d="M960 106L875.3 0L836.3 65Z" fill="#004da4" stroke="#004da4"></path><path d="M836.3 65L875.3 0L722.7 0Z" fill="#002340" stroke="#002340"></path><path d="M745.7 540L870.3 462L744.7 427Z" fill="#011a2d" stroke="#011a2d"></path><path d="M960 325L960 242L832.3 296Z" fill="#00101c" stroke="#00101c"></path><path d="M857.3 188L960 106L836.3 65Z" fill="#002340" stroke="#002340"></path><path d="M0 387L0 418L79.7 438Z" fill="#005dcf" stroke="#005dcf"></path><path d="M90.7 0L0 0L0 87Z" fill="#003d7b" stroke="#003d7b"></path><path d="M960 325L832.3 296L824.3 347Z" fill="#00101c" stroke="#00101c"></path><path d="M745.7 540L852.3 540L870.3 462Z" fill="#005dcf" stroke="#005dcf"></path><path d="M870.3 462L960 325L824.3 347Z" fill="#0465e4" stroke="#0465e4"></path><path d="M960 242L960 173L857.3 188Z" fill="#003d7b" stroke="#003d7b"></path><path d="M960 447L960 325L870.3 462Z" fill="#005dcf" stroke="#005dcf"></path><path d="M960 173L960 106L857.3 188Z" fill="#005dcf" stroke="#005dcf"></path><path d="M0 418L0 540L79.7 438Z" fill="#0055b9" stroke="#0055b9"></path><path d="M960 540L960 447L870.3 462Z" fill="#003d7b" stroke="#003d7b"></path><path d="M960 106L960 0L875.3 0Z" fill="#003d7b" stroke="#003d7b"></path><path d="M852.3 540L960 540L870.3 462Z" fill="#0465e4" stroke="#0465e4"></path></g></svg>