<svg id="visual" viewBox="0 0 540 960" width="540" height="960" xmlns="http://www.w3.org/2000/svg" xmlns:xlink="http://www.w3.org/1999/xlink" version="1.1"><g stroke-width="1" stroke-linejoin="bevel"><path d="M249 445.4L200 327.1L169 421.4Z" fill="#003d7b" stroke="#003d7b"></path><path d="M249 445.4L270 335.1L200 327.1Z" fill="#00458f" stroke="#00458f"></path><path d="M200 327.1L122 380.1L169 421.4Z" fill="#005cce" stroke="#005cce"></path><path d="M266 259.8L142 289.8L200 327.1Z" fill="#005cce" stroke="#005cce"></path><path d="M200 327.1L142 289.8L122 380.1Z" fill="#002c53" stroke="#002c53"></path><path d="M270 335.1L266 259.8L200 327.1Z" fill="#0364e3" stroke="#0364e3"></path><path d="M122 380.1L88 448.4L169 421.4Z" fill="#011a2d" stroke="#011a2d"></path><path d="M169 421.4L166 559.6L249 445.4Z" fill="#0364e3" stroke="#0364e3"></path><path d="M0 399.4L88 448.4L122 380.1Z" fill="#00101c" stroke="#00101c"></path><path d="M88 448.4L111 485.6L169 421.4Z" fill="#002c53" stroke="#002c53"></path><path d="M395 368.1L327 254.8L270 335.1Z" fill="#011a2d" stroke="#011a2d"></path><path d="M270 335.1L327 254.8L266 259.8Z" fill="#0364e3" stroke="#0364e3"></path><path d="M308 554.6L356 496.6L249 445.4Z" fill="#0055b9" stroke="#0055b9"></path><path d="M249 445.4L395 368.1L270 335.1Z" fill="#003567" stroke="#003567"></path><path d="M382 474.4L395 368.1L249 445.4Z" fill="#004da4" stroke="#004da4"></path><path d="M327 254.8L237 206.5L266 259.8Z" fill="#0055b9" stroke="#0055b9"></path><path d="M266 259.8L237 206.5L142 289.8Z" fill="#004da4" stroke="#004da4"></path><path d="M356 496.6L382 474.4L249 445.4Z" fill="#004da4" stroke="#004da4"></path><path d="M111 485.6L166 559.6L169 421.4Z" fill="#0364e3" stroke="#0364e3"></path><path d="M199 584.9L308 554.6L249 445.4Z" fill="#002c53" stroke="#002c53"></path><path d="M356 496.6L425 544.6L382 474.4Z" fill="#005cce" stroke="#005cce"></path><path d="M166 559.6L199 584.9L249 445.4Z" fill="#0364e3" stroke="#0364e3"></path><path d="M120 166.5L58 267.8L142 289.8Z" fill="#004da4" stroke="#004da4"></path><path d="M142 289.8L58 267.8L122 380.1Z" fill="#00101c" stroke="#00101c"></path><path d="M0 313.1L0 399.4L122 380.1Z" fill="#004da4" stroke="#004da4"></path><path d="M88 448.4L0 553.6L111 485.6Z" fill="#002c53" stroke="#002c53"></path><path d="M111 485.6L101 630.9L166 559.6Z" fill="#002c53" stroke="#002c53"></path><path d="M199 584.9L258 616.9L308 554.6Z" fill="#00458f" stroke="#00458f"></path><path d="M308 554.6L337 593.9L356 496.6Z" fill="#002340" stroke="#002340"></path><path d="M58 267.8L0 313.1L122 380.1Z" fill="#005cce" stroke="#005cce"></path><path d="M258 616.9L337 593.9L308 554.6Z" fill="#003d7b" stroke="#003d7b"></path><path d="M295 113.3L188 148.5L237 206.5Z" fill="#00101c" stroke="#00101c"></path><path d="M237 206.5L120 166.5L142 289.8Z" fill="#005cce" stroke="#005cce"></path><path d="M58 267.8L0 265.8L0 313.1Z" fill="#002340" stroke="#002340"></path><path d="M188 148.5L120 166.5L237 206.5Z" fill="#0364e3" stroke="#0364e3"></path><path d="M469 442.4L467 333.1L395 368.1Z" fill="#002340" stroke="#002340"></path><path d="M395 368.1L467 333.1L327 254.8Z" fill="#011a2d" stroke="#011a2d"></path><path d="M327 254.8L295 113.3L237 206.5Z" fill="#00101c" stroke="#00101c"></path><path d="M469 442.4L395 368.1L382 474.4Z" fill="#002340" stroke="#002340"></path><path d="M425 544.6L469 442.4L382 474.4Z" fill="#00458f" stroke="#00458f"></path><path d="M0 180.5L0 265.8L58 267.8Z" fill="#011a2d" stroke="#011a2d"></path><path d="M420 571.9L425 544.6L356 496.6Z" fill="#0055b9" stroke="#0055b9"></path><path d="M488 297.8L392 177.5L327 254.8Z" fill="#00458f" stroke="#00458f"></path><path d="M430 695.2L420 571.9L337 593.9Z" fill="#004da4" stroke="#004da4"></path><path d="M337 593.9L420 571.9L356 496.6Z" fill="#0364e3" stroke="#0364e3"></path><path d="M540 489.6L540 465.4L469 442.4Z" fill="#004da4" stroke="#004da4"></path><path d="M0 553.6L101 630.9L111 485.6Z" fill="#011a2d" stroke="#011a2d"></path><path d="M166 559.6L101 630.9L199 584.9Z" fill="#003d7b" stroke="#003d7b"></path><path d="M199 584.9L140 681.2L258 616.9Z" fill="#002340" stroke="#002340"></path><path d="M0 399.4L0 553.6L88 448.4Z" fill="#004da4" stroke="#004da4"></path><path d="M540 335.1L488 297.8L467 333.1Z" fill="#00101c" stroke="#00101c"></path><path d="M467 333.1L488 297.8L327 254.8Z" fill="#004da4" stroke="#004da4"></path><path d="M392 177.5L295 113.3L327 254.8Z" fill="#005cce" stroke="#005cce"></path><path d="M0 71.3L0 180.5L120 166.5Z" fill="#0364e3" stroke="#0364e3"></path><path d="M151 80.3L120 166.5L188 148.5Z" fill="#011a2d" stroke="#011a2d"></path><path d="M120 166.5L0 180.5L58 267.8Z" fill="#0055b9" stroke="#0055b9"></path><path d="M102 687.2L140 681.2L101 630.9Z" fill="#0055b9" stroke="#0055b9"></path><path d="M101 630.9L140 681.2L199 584.9Z" fill="#003d7b" stroke="#003d7b"></path><path d="M258 616.9L252 698.2L337 593.9Z" fill="#005cce" stroke="#005cce"></path><path d="M140 681.2L252 698.2L258 616.9Z" fill="#002c53" stroke="#002c53"></path><path d="M295 113.3L151 80.3L188 148.5Z" fill="#005cce" stroke="#005cce"></path><path d="M392 177.5L332 67.3L295 113.3Z" fill="#002c53" stroke="#002c53"></path><path d="M488 297.8L451 167.5L392 177.5Z" fill="#0055b9" stroke="#0055b9"></path><path d="M469 442.4L540 335.1L467 333.1Z" fill="#005cce" stroke="#005cce"></path><path d="M488 297.8L540 252.8L451 167.5Z" fill="#003d7b" stroke="#003d7b"></path><path d="M540 465.4L540 335.1L469 442.4Z" fill="#00458f" stroke="#00458f"></path><path d="M0 667.2L102 687.2L101 630.9Z" fill="#00458f" stroke="#00458f"></path><path d="M177 784.5L278 780.5L252 698.2Z" fill="#0364e3" stroke="#0364e3"></path><path d="M0 553.6L0 623.9L101 630.9Z" fill="#0055b9" stroke="#0055b9"></path><path d="M540 489.6L469 442.4L425 544.6Z" fill="#0364e3" stroke="#0364e3"></path><path d="M151 80.3L116 75.3L120 166.5Z" fill="#003d7b" stroke="#003d7b"></path><path d="M540 633.9L540 489.6L425 544.6Z" fill="#004da4" stroke="#004da4"></path><path d="M540 633.9L425 544.6L420 571.9Z" fill="#0055b9" stroke="#0055b9"></path><path d="M441 126.3L332 67.3L392 177.5Z" fill="#011a2d" stroke="#011a2d"></path><path d="M295 113.3L193 0L151 80.3Z" fill="#011a2d" stroke="#011a2d"></path><path d="M151 80.3L127 0L116 75.3Z" fill="#0055b9" stroke="#0055b9"></path><path d="M540 118.3L441 126.3L451 167.5Z" fill="#002c53" stroke="#002c53"></path><path d="M451 167.5L441 126.3L392 177.5Z" fill="#011a2d" stroke="#011a2d"></path><path d="M540 335.1L540 252.8L488 297.8Z" fill="#00101c" stroke="#00101c"></path><path d="M0 623.9L0 667.2L101 630.9Z" fill="#003567" stroke="#003567"></path><path d="M278 780.5L353 728.2L252 698.2Z" fill="#0055b9" stroke="#0055b9"></path><path d="M252 698.2L353 728.2L337 593.9Z" fill="#0055b9" stroke="#0055b9"></path><path d="M540 252.8L540 195.5L451 167.5Z" fill="#0055b9" stroke="#0055b9"></path><path d="M353 728.2L430 695.2L337 593.9Z" fill="#002c53" stroke="#002c53"></path><path d="M0 0L0 71.3L116 75.3Z" fill="#005cce" stroke="#005cce"></path><path d="M116 75.3L0 71.3L120 166.5Z" fill="#00458f" stroke="#00458f"></path><path d="M276 0L193 0L295 113.3Z" fill="#0055b9" stroke="#0055b9"></path><path d="M332 67.3L276 0L295 113.3Z" fill="#003d7b" stroke="#003d7b"></path><path d="M397 0L276 0L332 67.3Z" fill="#005cce" stroke="#005cce"></path><path d="M397 0L332 67.3L441 126.3Z" fill="#005cce" stroke="#005cce"></path><path d="M177 784.5L140 681.2L102 687.2Z" fill="#00101c" stroke="#00101c"></path><path d="M177 784.5L252 698.2L140 681.2Z" fill="#004da4" stroke="#004da4"></path><path d="M353 728.2L416 758.5L430 695.2Z" fill="#002340" stroke="#002340"></path><path d="M193 0L127 0L151 80.3Z" fill="#0364e3" stroke="#0364e3"></path><path d="M59 773.5L177 784.5L102 687.2Z" fill="#003567" stroke="#003567"></path><path d="M540 698.2L540 633.9L430 695.2Z" fill="#002c53" stroke="#002c53"></path><path d="M430 695.2L540 633.9L420 571.9Z" fill="#00458f" stroke="#00458f"></path><path d="M540 195.5L540 118.3L451 167.5Z" fill="#00458f" stroke="#00458f"></path><path d="M335 805.5L416 758.5L353 728.2Z" fill="#005cce" stroke="#005cce"></path><path d="M0 667.2L59 773.5L102 687.2Z" fill="#005cce" stroke="#005cce"></path><path d="M426 0L397 0L441 126.3Z" fill="#0055b9" stroke="#0055b9"></path><path d="M0 667.2L0 757.5L59 773.5Z" fill="#003d7b" stroke="#003d7b"></path><path d="M278 780.5L335 805.5L353 728.2Z" fill="#005cce" stroke="#005cce"></path><path d="M237 848.7L335 805.5L278 780.5Z" fill="#003d7b" stroke="#003d7b"></path><path d="M237 848.7L278 780.5L177 784.5Z" fill="#003567" stroke="#003567"></path><path d="M540 0L426 0L441 126.3Z" fill="#003567" stroke="#003567"></path><path d="M540 775.5L430 695.2L416 758.5Z" fill="#0364e3" stroke="#0364e3"></path><path d="M540 775.5L540 698.2L430 695.2Z" fill="#0055b9" stroke="#0055b9"></path><path d="M127 0L0 0L116 75.3Z" fill="#0364e3" stroke="#0364e3"></path><path d="M94 835.7L177 784.5L59 773.5Z" fill="#003d7b" stroke="#003d7b"></path><path d="M163 870.7L237 848.7L177 784.5Z" fill="#004da4" stroke="#004da4"></path><path d="M0 845.7L94 835.7L59 773.5Z" fill="#0364e3" stroke="#0364e3"></path><path d="M94 835.7L163 870.7L177 784.5Z" fill="#005cce" stroke="#005cce"></path><path d="M540 118.3L540 0L441 126.3Z" fill="#004da4" stroke="#004da4"></path><path d="M346 877.7L416 758.5L335 805.5Z" fill="#005cce" stroke="#005cce"></path><path d="M540 863.7L540 775.5L489 897.7Z" fill="#00101c" stroke="#00101c"></path><path d="M346 877.7L335 805.5L237 848.7Z" fill="#005cce" stroke="#005cce"></path><path d="M252 960L346 877.7L237 848.7Z" fill="#00458f" stroke="#00458f"></path><path d="M0 757.5L0 845.7L59 773.5Z" fill="#00101c" stroke="#00101c"></path><path d="M116 960L187 960L163 870.7Z" fill="#0364e3" stroke="#0364e3"></path><path d="M489 897.7L540 775.5L416 758.5Z" fill="#0364e3" stroke="#0364e3"></path><path d="M187 960L237 848.7L163 870.7Z" fill="#002340" stroke="#002340"></path><path d="M187 960L252 960L237 848.7Z" fill="#005cce" stroke="#005cce"></path><path d="M346 877.7L489 897.7L416 758.5Z" fill="#00458f" stroke="#00458f"></path><path d="M116 960L163 870.7L94 835.7Z" fill="#00458f" stroke="#00458f"></path><path d="M374 960L489 897.7L346 877.7Z" fill="#00101c" stroke="#00101c"></path><path d="M0 960L116 960L94 835.7Z" fill="#011a2d" stroke="#011a2d"></path><path d="M252 960L374 960L346 877.7Z" fill="#00458f" stroke="#00458f"></path><path d="M0 845.7L0 960L94 835.7Z" fill="#003567" stroke="#003567"></path><path d="M374 960L489 960L489 897.7Z" fill="#00458f" stroke="#00458f"></path><path d="M489 897.7L540 960L540 863.7Z" fill="#004da4" stroke="#004da4"></path><path d="M489 960L540 960L489 897.7Z" fill="#0055b9" stroke="#0055b9"></path></g></svg>