<?xml version="1.0" standalone="no"?>
<!DOCTYPE svg PUBLIC "-//W3C//DTD SVG 20010904//EN"
 "http://www.w3.org/TR/2001/REC-SVG-20010904/DTD/svg10.dtd">
<svg version="1.0" xmlns="http://www.w3.org/2000/svg"
 width="500.000000pt" height="500.000000pt" viewBox="0 0 500.000000 500.000000"
 preserveAspectRatio="xMidYMid meet">

<g transform="translate(0.000000,500.000000) scale(0.100000,-0.100000)"
fill="#000000" stroke="none">
<path d="M2420 4945 c-587 -63 -1101 -309 -1510 -724 -374 -379 -600 -832
-687 -1377 -13 -82 -17 -170 -17 -354 0 -262 9 -356 59 -567 155 -658 579
-1228 1167 -1568 598 -345 1292 -422 1968 -219 539 162 1051 557 1354 1044 51
83 55 105 25 144 -31 39 -74 35 -149 -15 -94 -62 -312 -165 -435 -205 -709
-231 -1476 -54 -1998 461 -317 313 -512 697 -578 1140 -17 115 -18 424 0 540
97 664 504 1219 1107 1511 73 36 138 73 144 84 16 30 12 57 -14 87 l-24 28
-143 2 c-79 1 -200 -4 -269 -12z m30 -159 c0 -2 -26 -20 -57 -41 -433 -285
-765 -757 -885 -1255 -81 -339 -79 -720 5 -1050 90 -349 282 -688 539 -950
407 -415 941 -640 1520 -640 286 0 532 47 797 152 40 16 75 27 77 25 7 -6
-100 -124 -185 -205 -493 -471 -1174 -703 -1846 -627 -158 18 -209 27 -350 65
-306 82 -616 240 -862 441 -251 205 -485 503 -620 788 -255 537 -298 1147
-122 1699 186 578 576 1047 1114 1339 255 138 609 248 848 261 15 1 27 0 27
-2z"/>
</g>
</svg>
