<svg id="visual" viewBox="0 0 900 600" width="900" height="600" xmlns="http://www.w3.org/2000/svg" xmlns:xlink="http://www.w3.org/1999/xlink" version="1.1"><rect width="900" height="600" fill="#001829"></rect><g><g transform="translate(57 350)"><path d="M0 -17.3L15 -8.7L15 8.7L0 17.3L-15 8.7L-15 -8.7Z" fill="#297EA6"></path></g><g transform="translate(589 222)"><path d="M0 -16L13.9 -8L13.9 8L0 16L-13.9 8L-13.9 -8Z" fill="#297EA6"></path></g><g transform="translate(693 429)"><path d="M0 -10L8.7 -5L8.7 5L0 10L-8.7 5L-8.7 -5Z" fill="#297EA6"></path></g><g transform="translate(777 439)"><path d="M0 -11L9.5 -5.5L9.5 5.5L0 11L-9.5 5.5L-9.5 -5.5Z" fill="#297EA6"></path></g><g transform="translate(207 595)"><path d="M0 -13L11.3 -6.5L11.3 6.5L0 13L-11.3 6.5L-11.3 -6.5Z" fill="#297EA6"></path></g><g transform="translate(125 470)"><path d="M0 -13L11.3 -6.5L11.3 6.5L0 13L-11.3 6.5L-11.3 -6.5Z" fill="#297EA6"></path></g><g transform="translate(164 12)"><path d="M0 -14L12.1 -7L12.1 7L0 14L-12.1 7L-12.1 -7Z" fill="#297EA6"></path></g><g transform="translate(531 393)"><path d="M0 -14L12.1 -7L12.1 7L0 14L-12.1 7L-12.1 -7Z" fill="#297EA6"></path></g><g transform="translate(869 185)"><path d="M0 -16L13.9 -8L13.9 8L0 16L-13.9 8L-13.9 -8Z" fill="#297EA6"></path></g><g transform="translate(797 567)"><path d="M0 -13L11.3 -6.5L11.3 6.5L0 13L-11.3 6.5L-11.3 -6.5Z" fill="#297EA6"></path></g><g transform="translate(799 369)"><path d="M0 -12L10.4 -6L10.4 6L0 12L-10.4 6L-10.4 -6Z" fill="#297EA6"></path></g><g transform="translate(792 32)"><path d="M0 -11L9.5 -5.5L9.5 5.5L0 11L-9.5 5.5L-9.5 -5.5Z" fill="#297EA6"></path></g><g transform="translate(273 251)"><path d="M0 -12L10.4 -6L10.4 6L0 12L-10.4 6L-10.4 -6Z" fill="#297EA6"></path></g><g transform="translate(303 218)"><path d="M0 -10L8.7 -5L8.7 5L0 10L-8.7 5L-8.7 -5Z" fill="#297EA6"></path></g><g transform="translate(622 45)"><path d="M0 -15L13 -7.5L13 7.5L0 15L-13 7.5L-13 -7.5Z" fill="#297EA6"></path></g><g transform="translate(567 595)"><path d="M0 -12L10.4 -6L10.4 6L0 12L-10.4 6L-10.4 -6Z" fill="#297EA6"></path></g><g transform="translate(380 397)"><path d="M0 -11L9.5 -5.5L9.5 5.5L0 11L-9.5 5.5L-9.5 -5.5Z" fill="#297EA6"></path></g><g transform="translate(487 414)"><path d="M0 -13L11.3 -6.5L11.3 6.5L0 13L-11.3 6.5L-11.3 -6.5Z" fill="#297EA6"></path></g><g transform="translate(352 561)"><path d="M0 -10L8.7 -5L8.7 5L0 10L-8.7 5L-8.7 -5Z" fill="#297EA6"></path></g><g transform="translate(167 458)"><path d="M0 -14L12.1 -7L12.1 7L0 14L-12.1 7L-12.1 -7Z" fill="#297EA6"></path></g><g transform="translate(384 435)"><path d="M0 -13L11.3 -6.5L11.3 6.5L0 13L-11.3 6.5L-11.3 -6.5Z" fill="#297EA6"></path></g><g transform="translate(86 24)"><path d="M0 -15L13 -7.5L13 7.5L0 15L-13 7.5L-13 -7.5Z" fill="#297EA6"></path></g><g transform="translate(608 594)"><path d="M0 -15L13 -7.5L13 7.5L0 15L-13 7.5L-13 -7.5Z" fill="#297EA6"></path></g><g transform="translate(272 82)"><path d="M0 -10L8.7 -5L8.7 5L0 10L-8.7 5L-8.7 -5Z" fill="#297EA6"></path></g><g transform="translate(171 222)"><path d="M0 -16L13.9 -8L13.9 8L0 16L-13.9 8L-13.9 -8Z" fill="#297EA6"></path></g><g transform="translate(303 363)"><path d="M0 -10L8.7 -5L8.7 5L0 10L-8.7 5L-8.7 -5Z" fill="#297EA6"></path></g><g transform="translate(683 190)"><path d="M0 -11L9.5 -5.5L9.5 5.5L0 11L-9.5 5.5L-9.5 -5.5Z" fill="#297EA6"></path></g><g transform="translate(648 155)"><path d="M0 -14L12.1 -7L12.1 7L0 14L-12.1 7L-12.1 -7Z" fill="#297EA6"></path></g><g transform="translate(372 121)"><path d="M0 -10L8.7 -5L8.7 5L0 10L-8.7 5L-8.7 -5Z" fill="#297EA6"></path></g><g transform="translate(708 267)"><path d="M0 -11L9.5 -5.5L9.5 5.5L0 11L-9.5 5.5L-9.5 -5.5Z" fill="#297EA6"></path></g><g transform="translate(353 1)"><path d="M0 -15L13 -7.5L13 7.5L0 15L-13 7.5L-13 -7.5Z" fill="#297EA6"></path></g><g transform="translate(372 519)"><path d="M0 -16L13.9 -8L13.9 8L0 16L-13.9 8L-13.9 -8Z" fill="#297EA6"></path></g><g transform="translate(62 106)"><path d="M0 -14L12.1 -7L12.1 7L0 14L-12.1 7L-12.1 -7Z" fill="#297EA6"></path></g><g transform="translate(359 311)"><path d="M0 -13L11.3 -6.5L11.3 6.5L0 13L-11.3 6.5L-11.3 -6.5Z" fill="#297EA6"></path></g><g transform="translate(417 574)"><path d="M0 -11L9.5 -5.5L9.5 5.5L0 11L-9.5 5.5L-9.5 -5.5Z" fill="#297EA6"></path></g><g transform="translate(58 227)"><path d="M0 -16L13.9 -8L13.9 8L0 16L-13.9 8L-13.9 -8Z" fill="#297EA6"></path></g><g transform="translate(772 173)"><path d="M0 -15L13 -7.5L13 7.5L0 15L-13 7.5L-13 -7.5Z" fill="#297EA6"></path></g><g transform="translate(429 71)"><path d="M0 -11L9.5 -5.5L9.5 5.5L0 11L-9.5 5.5L-9.5 -5.5Z" fill="#297EA6"></path></g><g transform="translate(623 317)"><path d="M0 -11L9.5 -5.5L9.5 5.5L0 11L-9.5 5.5L-9.5 -5.5Z" fill="#297EA6"></path></g><g transform="translate(343 440)"><path d="M0 -13L11.3 -6.5L11.3 6.5L0 13L-11.3 6.5L-11.3 -6.5Z" fill="#297EA6"></path></g><g transform="translate(420 204)"><path d="M0 -12L10.4 -6L10.4 6L0 12L-10.4 6L-10.4 -6Z" fill="#297EA6"></path></g><g transform="translate(166 588)"><path d="M0 -14L12.1 -7L12.1 7L0 14L-12.1 7L-12.1 -7Z" fill="#297EA6"></path></g><g transform="translate(654 445)"><path d="M0 -16L13.9 -8L13.9 8L0 16L-13.9 8L-13.9 -8Z" fill="#297EA6"></path></g><g transform="translate(379 191)"><path d="M0 -13L11.3 -6.5L11.3 6.5L0 13L-11.3 6.5L-11.3 -6.5Z" fill="#297EA6"></path></g><g transform="translate(281 145)"><path d="M0 -15L13 -7.5L13 7.5L0 15L-13 7.5L-13 -7.5Z" fill="#297EA6"></path></g><g transform="translate(215 46)"><path d="M0 -16L13.9 -8L13.9 8L0 16L-13.9 8L-13.9 -8Z" fill="#297EA6"></path></g><g transform="translate(818 435)"><path d="M0 -11L9.5 -5.5L9.5 5.5L0 11L-9.5 5.5L-9.5 -5.5Z" fill="#297EA6"></path></g><g transform="translate(238 101)"><path d="M0 -14L12.1 -7L12.1 7L0 14L-12.1 7L-12.1 -7Z" fill="#297EA6"></path></g><g transform="translate(59 395)"><path d="M0 -14L12.1 -7L12.1 7L0 14L-12.1 7L-12.1 -7Z" fill="#297EA6"></path></g><g transform="translate(590 448)"><path d="M0 -15L13 -7.5L13 7.5L0 15L-13 7.5L-13 -7.5Z" fill="#297EA6"></path></g><g transform="translate(39 318)"><path d="M0 -12L10.4 -6L10.4 6L0 12L-10.4 6L-10.4 -6Z" fill="#297EA6"></path></g><g transform="translate(430 19)"><path d="M0 -16L13.9 -8L13.9 8L0 16L-13.9 8L-13.9 -8Z" fill="#297EA6"></path></g><g transform="translate(39 466)"><path d="M0 -10L8.7 -5L8.7 5L0 10L-8.7 5L-8.7 -5Z" fill="#297EA6"></path></g><g transform="translate(729 562)"><path d="M0 -14L12.1 -7L12.1 7L0 14L-12.1 7L-12.1 -7Z" fill="#297EA6"></path></g><g transform="translate(481 132)"><path d="M0 -16L13.9 -8L13.9 8L0 16L-13.9 8L-13.9 -8Z" fill="#297EA6"></path></g><g transform="translate(812 527)"><path d="M0 -12L10.4 -6L10.4 6L0 12L-10.4 6L-10.4 -6Z" fill="#297EA6"></path></g><g transform="translate(215 335)"><path d="M0 -16L13.9 -8L13.9 8L0 16L-13.9 8L-13.9 -8Z" fill="#297EA6"></path></g><g transform="translate(742 290)"><path d="M0 -12L10.4 -6L10.4 6L0 12L-10.4 6L-10.4 -6Z" fill="#297EA6"></path></g><g transform="translate(881 344)"><path d="M0 -15L13 -7.5L13 7.5L0 15L-13 7.5L-13 -7.5Z" fill="#297EA6"></path></g><g transform="translate(141 402)"><path d="M0 -11L9.5 -5.5L9.5 5.5L0 11L-9.5 5.5L-9.5 -5.5Z" fill="#297EA6"></path></g><g transform="translate(129 576)"><path d="M0 -15L13 -7.5L13 7.5L0 15L-13 7.5L-13 -7.5Z" fill="#297EA6"></path></g><g transform="translate(111 263)"><path d="M0 -13L11.3 -6.5L11.3 6.5L0 13L-11.3 6.5L-11.3 -6.5Z" fill="#297EA6"></path></g><g transform="translate(27 188)"><path d="M0 -13L11.3 -6.5L11.3 6.5L0 13L-11.3 6.5L-11.3 -6.5Z" fill="#297EA6"></path></g><g transform="translate(460 255)"><path d="M0 -10L8.7 -5L8.7 5L0 10L-8.7 5L-8.7 -5Z" fill="#297EA6"></path></g><g transform="translate(19 415)"><path d="M0 -13L11.3 -6.5L11.3 6.5L0 13L-11.3 6.5L-11.3 -6.5Z" fill="#297EA6"></path></g><g transform="translate(835 81)"><path d="M0 -12L10.4 -6L10.4 6L0 12L-10.4 6L-10.4 -6Z" fill="#297EA6"></path></g><g transform="translate(853 285)"><path d="M0 -16L13.9 -8L13.9 8L0 16L-13.9 8L-13.9 -8Z" fill="#297EA6"></path></g><g transform="translate(838 384)"><path d="M0 -10L8.7 -5L8.7 5L0 10L-8.7 5L-8.7 -5Z" fill="#297EA6"></path></g><g transform="translate(301 54)"><path d="M0 -15L13 -7.5L13 7.5L0 15L-13 7.5L-13 -7.5Z" fill="#297EA6"></path></g><g transform="translate(229 242)"><path d="M0 -12L10.4 -6L10.4 6L0 12L-10.4 6L-10.4 -6Z" fill="#297EA6"></path></g><g transform="translate(835 200)"><path d="M0 -14L12.1 -7L12.1 7L0 14L-12.1 7L-12.1 -7Z" fill="#297EA6"></path></g><g transform="translate(248 521)"><path d="M0 -10L8.7 -5L8.7 5L0 10L-8.7 5L-8.7 -5Z" fill="#297EA6"></path></g><g transform="translate(459 185)"><path d="M0 -13L11.3 -6.5L11.3 6.5L0 13L-11.3 6.5L-11.3 -6.5Z" fill="#297EA6"></path></g><g transform="translate(45 502)"><path d="M0 -15L13 -7.5L13 7.5L0 15L-13 7.5L-13 -7.5Z" fill="#297EA6"></path></g><g transform="translate(851 550)"><path d="M0 -10L8.7 -5L8.7 5L0 10L-8.7 5L-8.7 -5Z" fill="#297EA6"></path></g><g transform="translate(732 445)"><path d="M0 -11L9.5 -5.5L9.5 5.5L0 11L-9.5 5.5L-9.5 -5.5Z" fill="#297EA6"></path></g><g transform="translate(578 407)"><path d="M0 -14L12.1 -7L12.1 7L0 14L-12.1 7L-12.1 -7Z" fill="#297EA6"></path></g><g transform="translate(453 553)"><path d="M0 -14L12.1 -7L12.1 7L0 14L-12.1 7L-12.1 -7Z" fill="#297EA6"></path></g><g transform="translate(731 223)"><path d="M0 -15L13 -7.5L13 7.5L0 15L-13 7.5L-13 -7.5Z" fill="#297EA6"></path></g><g transform="translate(556 50)"><path d="M0 -16L13.9 -8L13.9 8L0 16L-13.9 8L-13.9 -8Z" fill="#297EA6"></path></g><g transform="translate(467 598)"><path d="M0 -12L10.4 -6L10.4 6L0 12L-10.4 6L-10.4 -6Z" fill="#297EA6"></path></g><g transform="translate(203 553)"><path d="M0 -10L8.7 -5L8.7 5L0 10L-8.7 5L-8.7 -5Z" fill="#297EA6"></path></g><g transform="translate(618 420)"><path d="M0 -16L13.9 -8L13.9 8L0 16L-13.9 8L-13.9 -8Z" fill="#297EA6"></path></g><g transform="translate(749 533)"><path d="M0 -14L12.1 -7L12.1 7L0 14L-12.1 7L-12.1 -7Z" fill="#297EA6"></path></g><g transform="translate(168 524)"><path d="M0 -14L12.1 -7L12.1 7L0 14L-12.1 7L-12.1 -7Z" fill="#297EA6"></path></g><g transform="translate(344 275)"><path d="M0 -13L11.3 -6.5L11.3 6.5L0 13L-11.3 6.5L-11.3 -6.5Z" fill="#297EA6"></path></g><g transform="translate(877 488)"><path d="M0 -15L13 -7.5L13 7.5L0 15L-13 7.5L-13 -7.5Z" fill="#297EA6"></path></g><g transform="translate(885 239)"><path d="M0 -15L13 -7.5L13 7.5L0 15L-13 7.5L-13 -7.5Z" fill="#297EA6"></path></g><g transform="translate(713 138)"><path d="M0 -12L10.4 -6L10.4 6L0 12L-10.4 6L-10.4 -6Z" fill="#297EA6"></path></g><g transform="translate(430 502)"><path d="M0 -16L13.9 -8L13.9 8L0 16L-13.9 8L-13.9 -8Z" fill="#297EA6"></path></g><g transform="translate(396 271)"><path d="M0 -12L10.4 -6L10.4 6L0 12L-10.4 6L-10.4 -6Z" fill="#297EA6"></path></g><g transform="translate(326 407)"><path d="M0 -14L12.1 -7L12.1 7L0 14L-12.1 7L-12.1 -7Z" fill="#297EA6"></path></g><g transform="translate(245 594)"><path d="M0 -16L13.9 -8L13.9 8L0 16L-13.9 8L-13.9 -8Z" fill="#297EA6"></path></g><g transform="translate(95 188)"><path d="M0 -13L11.3 -6.5L11.3 6.5L0 13L-11.3 6.5L-11.3 -6.5Z" fill="#297EA6"></path></g><g transform="translate(461 90)"><path d="M0 -12L10.4 -6L10.4 6L0 12L-10.4 6L-10.4 -6Z" fill="#297EA6"></path></g><g transform="translate(448 443)"><path d="M0 -12L10.4 -6L10.4 6L0 12L-10.4 6L-10.4 -6Z" fill="#297EA6"></path></g><g transform="translate(213 447)"><path d="M0 -13L11.3 -6.5L11.3 6.5L0 13L-11.3 6.5L-11.3 -6.5Z" fill="#297EA6"></path></g><g transform="translate(172 282)"><path d="M0 -11L9.5 -5.5L9.5 5.5L0 11L-9.5 5.5L-9.5 -5.5Z" fill="#297EA6"></path></g><g transform="translate(502 30)"><path d="M0 -15L13 -7.5L13 7.5L0 15L-13 7.5L-13 -7.5Z" fill="#297EA6"></path></g><g transform="translate(664 561)"><path d="M0 -13L11.3 -6.5L11.3 6.5L0 13L-11.3 6.5L-11.3 -6.5Z" fill="#297EA6"></path></g><g transform="translate(674 332)"><path d="M0 -10L8.7 -5L8.7 5L0 10L-8.7 5L-8.7 -5Z" fill="#297EA6"></path></g><g transform="translate(589 83)"><path d="M0 -12L10.4 -6L10.4 6L0 12L-10.4 6L-10.4 -6Z" fill="#297EA6"></path></g><g transform="translate(372 482)"><path d="M0 -11L9.5 -5.5L9.5 5.5L0 11L-9.5 5.5L-9.5 -5.5Z" fill="#297EA6"></path></g><g transform="translate(689 476)"><path d="M0 -14L12.1 -7L12.1 7L0 14L-12.1 7L-12.1 -7Z" fill="#297EA6"></path></g><g transform="translate(100 227)"><path d="M0 -10L8.7 -5L8.7 5L0 10L-8.7 5L-8.7 -5Z" fill="#297EA6"></path></g><g transform="translate(225 375)"><path d="M0 -14L12.1 -7L12.1 7L0 14L-12.1 7L-12.1 -7Z" fill="#297EA6"></path></g><g transform="translate(884 585)"><path d="M0 -16L13.9 -8L13.9 8L0 16L-13.9 8L-13.9 -8Z" fill="#297EA6"></path></g><g transform="translate(731 340)"><path d="M0 -15L13 -7.5L13 7.5L0 15L-13 7.5L-13 -7.5Z" fill="#297EA6"></path></g><g transform="translate(656 378)"><path d="M0 -13L11.3 -6.5L11.3 6.5L0 13L-11.3 6.5L-11.3 -6.5Z" fill="#297EA6"></path></g><g transform="translate(533 529)"><path d="M0 -15L13 -7.5L13 7.5L0 15L-13 7.5L-13 -7.5Z" fill="#297EA6"></path></g><g transform="translate(810 116)"><path d="M0 -13L11.3 -6.5L11.3 6.5L0 13L-11.3 6.5L-11.3 -6.5Z" fill="#297EA6"></path></g><g transform="translate(480 339)"><path d="M0 -15L13 -7.5L13 7.5L0 15L-13 7.5L-13 -7.5Z" fill="#297EA6"></path></g><g transform="translate(603 161)"><path d="M0 -10L8.7 -5L8.7 5L0 10L-8.7 5L-8.7 -5Z" fill="#297EA6"></path></g><g transform="translate(748 60)"><path d="M0 -12L10.4 -6L10.4 6L0 12L-10.4 6L-10.4 -6Z" fill="#297EA6"></path></g><g transform="translate(418 305)"><path d="M0 -15L13 -7.5L13 7.5L0 15L-13 7.5L-13 -7.5Z" fill="#297EA6"></path></g><g transform="translate(514 285)"><path d="M0 -13L11.3 -6.5L11.3 6.5L0 13L-11.3 6.5L-11.3 -6.5Z" fill="#297EA6"></path></g><g transform="translate(182 74)"><path d="M0 -10L8.7 -5L8.7 5L0 10L-8.7 5L-8.7 -5Z" fill="#297EA6"></path></g><g transform="translate(327 524)"><path d="M0 -15L13 -7.5L13 7.5L0 15L-13 7.5L-13 -7.5Z" fill="#297EA6"></path></g><g transform="translate(624 100)"><path d="M0 -14L12.1 -7L12.1 7L0 14L-12.1 7L-12.1 -7Z" fill="#297EA6"></path></g><g transform="translate(13 250)"><path d="M0 -12L10.4 -6L10.4 6L0 12L-10.4 6L-10.4 -6Z" fill="#297EA6"></path></g><g transform="translate(763 367)"><path d="M0 -14L12.1 -7L12.1 7L0 14L-12.1 7L-12.1 -7Z" fill="#297EA6"></path></g><g transform="translate(261 368)"><path d="M0 -13L11.3 -6.5L11.3 6.5L0 13L-11.3 6.5L-11.3 -6.5Z" fill="#297EA6"></path></g><g transform="translate(14 155)"><path d="M0 -13L11.3 -6.5L11.3 6.5L0 13L-11.3 6.5L-11.3 -6.5Z" fill="#297EA6"></path></g><g transform="translate(116 97)"><path d="M0 -10L8.7 -5L8.7 5L0 10L-8.7 5L-8.7 -5Z" fill="#297EA6"></path></g><g transform="translate(839 586)"><path d="M0 -14L12.1 -7L12.1 7L0 14L-12.1 7L-12.1 -7Z" fill="#297EA6"></path></g><g transform="translate(689 392)"><path d="M0 -16L13.9 -8L13.9 8L0 16L-13.9 8L-13.9 -8Z" fill="#297EA6"></path></g><g transform="translate(562 175)"><path d="M0 -13L11.3 -6.5L11.3 6.5L0 13L-11.3 6.5L-11.3 -6.5Z" fill="#297EA6"></path></g><g transform="translate(813 169)"><path d="M0 -13L11.3 -6.5L11.3 6.5L0 13L-11.3 6.5L-11.3 -6.5Z" fill="#297EA6"></path></g><g transform="translate(334 94)"><path d="M0 -14L12.1 -7L12.1 7L0 14L-12.1 7L-12.1 -7Z" fill="#297EA6"></path></g><g transform="translate(283 302)"><path d="M0 -11L9.5 -5.5L9.5 5.5L0 11L-9.5 5.5L-9.5 -5.5Z" fill="#297EA6"></path></g><g transform="translate(706 511)"><path d="M0 -13L11.3 -6.5L11.3 6.5L0 13L-11.3 6.5L-11.3 -6.5Z" fill="#297EA6"></path></g><g transform="translate(471 487)"><path d="M0 -11L9.5 -5.5L9.5 5.5L0 11L-9.5 5.5L-9.5 -5.5Z" fill="#297EA6"></path></g><g transform="translate(274 484)"><path d="M0 -13L11.3 -6.5L11.3 6.5L0 13L-11.3 6.5L-11.3 -6.5Z" fill="#297EA6"></path></g><g transform="translate(518 242)"><path d="M0 -14L12.1 -7L12.1 7L0 14L-12.1 7L-12.1 -7Z" fill="#297EA6"></path></g><g transform="translate(92 328)"><path d="M0 -16L13.9 -8L13.9 8L0 16L-13.9 8L-13.9 -8Z" fill="#297EA6"></path></g><g transform="translate(90 482)"><path d="M0 -13L11.3 -6.5L11.3 6.5L0 13L-11.3 6.5L-11.3 -6.5Z" fill="#297EA6"></path></g><g transform="translate(391 43)"><path d="M0 -15L13 -7.5L13 7.5L0 15L-13 7.5L-13 -7.5Z" fill="#297EA6"></path></g><g transform="translate(37 70)"><path d="M0 -15L13 -7.5L13 7.5L0 15L-13 7.5L-13 -7.5Z" fill="#297EA6"></path></g><g transform="translate(10 108)"><path d="M0 -11L9.5 -5.5L9.5 5.5L0 11L-9.5 5.5L-9.5 -5.5Z" fill="#297EA6"></path></g><g transform="translate(561 252)"><path d="M0 -12L10.4 -6L10.4 6L0 12L-10.4 6L-10.4 -6Z" fill="#297EA6"></path></g><g transform="translate(429 159)"><path d="M0 -15L13 -7.5L13 7.5L0 15L-13 7.5L-13 -7.5Z" fill="#297EA6"></path></g><g transform="translate(648 15)"><path d="M0 -15L13 -7.5L13 7.5L0 15L-13 7.5L-13 -7.5Z" fill="#297EA6"></path></g><g transform="translate(798 273)"><path d="M0 -11L9.5 -5.5L9.5 5.5L0 11L-9.5 5.5L-9.5 -5.5Z" fill="#297EA6"></path></g><g transform="translate(423 410)"><path d="M0 -15L13 -7.5L13 7.5L0 15L-13 7.5L-13 -7.5Z" fill="#297EA6"></path></g><g transform="translate(292 9)"><path d="M0 -13L11.3 -6.5L11.3 6.5L0 13L-11.3 6.5L-11.3 -6.5Z" fill="#297EA6"></path></g><g transform="translate(56 262)"><path d="M0 -12L10.4 -6L10.4 6L0 12L-10.4 6L-10.4 -6Z" fill="#297EA6"></path></g><g transform="translate(248 307)"><path d="M0 -10L8.7 -5L8.7 5L0 10L-8.7 5L-8.7 -5Z" fill="#297EA6"></path></g><g transform="translate(170 177)"><path d="M0 -13L11.3 -6.5L11.3 6.5L0 13L-11.3 6.5L-11.3 -6.5Z" fill="#297EA6"></path></g><g transform="translate(281 180)"><path d="M0 -16L13.9 -8L13.9 8L0 16L-13.9 8L-13.9 -8Z" fill="#297EA6"></path></g><g transform="translate(794 209)"><path d="M0 -11L9.5 -5.5L9.5 5.5L0 11L-9.5 5.5L-9.5 -5.5Z" fill="#297EA6"></path></g><g transform="translate(149 142)"><path d="M0 -11L9.5 -5.5L9.5 5.5L0 11L-9.5 5.5L-9.5 -5.5Z" fill="#297EA6"></path></g><g transform="translate(510 84)"><path d="M0 -13L11.3 -6.5L11.3 6.5L0 13L-11.3 6.5L-11.3 -6.5Z" fill="#297EA6"></path></g><g transform="translate(870 33)"><path d="M0 -10L8.7 -5L8.7 5L0 10L-8.7 5L-8.7 -5Z" fill="#297EA6"></path></g><g transform="translate(164 353)"><path d="M0 -10L8.7 -5L8.7 5L0 10L-8.7 5L-8.7 -5Z" fill="#297EA6"></path></g><g transform="translate(551 335)"><path d="M0 -13L11.3 -6.5L11.3 6.5L0 13L-11.3 6.5L-11.3 -6.5Z" fill="#297EA6"></path></g><g transform="translate(114 435)"><path d="M0 -11L9.5 -5.5L9.5 5.5L0 11L-9.5 5.5L-9.5 -5.5Z" fill="#297EA6"></path></g><g transform="translate(516 435)"><path d="M0 -13L11.3 -6.5L11.3 6.5L0 13L-11.3 6.5L-11.3 -6.5Z" fill="#297EA6"></path></g><g transform="translate(481 224)"><path d="M0 -14L12.1 -7L12.1 7L0 14L-12.1 7L-12.1 -7Z" fill="#297EA6"></path></g><g transform="translate(606 556)"><path d="M0 -12L10.4 -6L10.4 6L0 12L-10.4 6L-10.4 -6Z" fill="#297EA6"></path></g><g transform="translate(394 360)"><path d="M0 -13L11.3 -6.5L11.3 6.5L0 13L-11.3 6.5L-11.3 -6.5Z" fill="#297EA6"></path></g><g transform="translate(326 179)"><path d="M0 -15L13 -7.5L13 7.5L0 15L-13 7.5L-13 -7.5Z" fill="#297EA6"></path></g><g transform="translate(667 255)"><path d="M0 -15L13 -7.5L13 7.5L0 15L-13 7.5L-13 -7.5Z" fill="#297EA6"></path></g><g transform="translate(728 396)"><path d="M0 -10L8.7 -5L8.7 5L0 10L-8.7 5L-8.7 -5Z" fill="#297EA6"></path></g><g transform="translate(331 144)"><path d="M0 -10L8.7 -5L8.7 5L0 10L-8.7 5L-8.7 -5Z" fill="#297EA6"></path></g><g transform="translate(779 336)"><path d="M0 -14L12.1 -7L12.1 7L0 14L-12.1 7L-12.1 -7Z" fill="#297EA6"></path></g><g transform="translate(293 428)"><path d="M0 -10L8.7 -5L8.7 5L0 10L-8.7 5L-8.7 -5Z" fill="#297EA6"></path></g><g transform="translate(509 184)"><path d="M0 -10L8.7 -5L8.7 5L0 10L-8.7 5L-8.7 -5Z" fill="#297EA6"></path></g><g transform="translate(451 292)"><path d="M0 -16L13.9 -8L13.9 8L0 16L-13.9 8L-13.9 -8Z" fill="#297EA6"></path></g><g transform="translate(3 319)"><path d="M0 -11L9.5 -5.5L9.5 5.5L0 11L-9.5 5.5L-9.5 -5.5Z" fill="#297EA6"></path></g><g transform="translate(104 60)"><path d="M0 -14L12.1 -7L12.1 7L0 14L-12.1 7L-12.1 -7Z" fill="#297EA6"></path></g><g transform="translate(767 107)"><path d="M0 -11L9.5 -5.5L9.5 5.5L0 11L-9.5 5.5L-9.5 -5.5Z" fill="#297EA6"></path></g><g transform="translate(622 487)"><path d="M0 -13L11.3 -6.5L11.3 6.5L0 13L-11.3 6.5L-11.3 -6.5Z" fill="#297EA6"></path></g><g transform="translate(197 108)"><path d="M0 -14L12.1 -7L12.1 7L0 14L-12.1 7L-12.1 -7Z" fill="#297EA6"></path></g><g transform="translate(225 483)"><path d="M0 -15L13 -7.5L13 7.5L0 15L-13 7.5L-13 -7.5Z" fill="#297EA6"></path></g><g transform="translate(893 419)"><path d="M0 -16L13.9 -8L13.9 8L0 16L-13.9 8L-13.9 -8Z" fill="#297EA6"></path></g><g transform="translate(260 446)"><path d="M0 -12L10.4 -6L10.4 6L0 12L-10.4 6L-10.4 -6Z" fill="#297EA6"></path></g><g transform="translate(709 95)"><path d="M0 -14L12.1 -7L12.1 7L0 14L-12.1 7L-12.1 -7Z" fill="#297EA6"></path></g><g transform="translate(134 320)"><path d="M0 -15L13 -7.5L13 7.5L0 15L-13 7.5L-13 -7.5Z" fill="#297EA6"></path></g><g transform="translate(376 240)"><path d="M0 -16L13.9 -8L13.9 8L0 16L-13.9 8L-13.9 -8Z" fill="#297EA6"></path></g><g transform="translate(48 146)"><path d="M0 -15L13 -7.5L13 7.5L0 15L-13 7.5L-13 -7.5Z" fill="#297EA6"></path></g><g transform="translate(222 413)"><path d="M0 -16L13.9 -8L13.9 8L0 16L-13.9 8L-13.9 -8Z" fill="#297EA6"></path></g><g transform="translate(480 59)"><path d="M0 -15L13 -7.5L13 7.5L0 15L-13 7.5L-13 -7.5Z" fill="#297EA6"></path></g><g transform="translate(548 5)"><path d="M0 -11L9.5 -5.5L9.5 5.5L0 11L-9.5 5.5L-9.5 -5.5Z" fill="#297EA6"></path></g><g transform="translate(335 348)"><path d="M0 -15L13 -7.5L13 7.5L0 15L-13 7.5L-13 -7.5Z" fill="#297EA6"></path></g><g transform="translate(707 597)"><path d="M0 -16L13.9 -8L13.9 8L0 16L-13.9 8L-13.9 -8Z" fill="#297EA6"></path></g><g transform="translate(232 181)"><path d="M0 -13L11.3 -6.5L11.3 6.5L0 13L-11.3 6.5L-11.3 -6.5Z" fill="#297EA6"></path></g><g transform="translate(64 436)"><path d="M0 -10L8.7 -5L8.7 5L0 10L-8.7 5L-8.7 -5Z" fill="#297EA6"></path></g><g transform="translate(741 5)"><path d="M0 -15L13 -7.5L13 7.5L0 15L-13 7.5L-13 -7.5Z" fill="#297EA6"></path></g><g transform="translate(586 124)"><path d="M0 -12L10.4 -6L10.4 6L0 12L-10.4 6L-10.4 -6Z" fill="#297EA6"></path></g><g transform="translate(439 348)"><path d="M0 -13L11.3 -6.5L11.3 6.5L0 13L-11.3 6.5L-11.3 -6.5Z" fill="#297EA6"></path></g><g transform="translate(505 570)"><path d="M0 -10L8.7 -5L8.7 5L0 10L-8.7 5L-8.7 -5Z" fill="#297EA6"></path></g><g transform="translate(843 234)"><path d="M0 -14L12.1 -7L12.1 7L0 14L-12.1 7L-12.1 -7Z" fill="#297EA6"></path></g><g transform="translate(585 355)"><path d="M0 -11L9.5 -5.5L9.5 5.5L0 11L-9.5 5.5L-9.5 -5.5Z" fill="#297EA6"></path></g><g transform="translate(485 523)"><path d="M0 -13L11.3 -6.5L11.3 6.5L0 13L-11.3 6.5L-11.3 -6.5Z" fill="#297EA6"></path></g><g transform="translate(19 525)"><path d="M0 -13L11.3 -6.5L11.3 6.5L0 13L-11.3 6.5L-11.3 -6.5Z" fill="#297EA6"></path></g><g transform="translate(710 57)"><path d="M0 -13L11.3 -6.5L11.3 6.5L0 13L-11.3 6.5L-11.3 -6.5Z" fill="#297EA6"></path></g><g transform="translate(409 121)"><path d="M0 -15L13 -7.5L13 7.5L0 15L-13 7.5L-13 -7.5Z" fill="#297EA6"></path></g><g transform="translate(626 189)"><path d="M0 -15L13 -7.5L13 7.5L0 15L-13 7.5L-13 -7.5Z" fill="#297EA6"></path></g><g transform="translate(685 31)"><path d="M0 -15L13 -7.5L13 7.5L0 15L-13 7.5L-13 -7.5Z" fill="#297EA6"></path></g><g transform="translate(366 74)"><path d="M0 -11L9.5 -5.5L9.5 5.5L0 11L-9.5 5.5L-9.5 -5.5Z" fill="#297EA6"></path></g><g transform="translate(814 311)"><path d="M0 -13L11.3 -6.5L11.3 6.5L0 13L-11.3 6.5L-11.3 -6.5Z" fill="#297EA6"></path></g><g transform="translate(578 299)"><path d="M0 -11L9.5 -5.5L9.5 5.5L0 11L-9.5 5.5L-9.5 -5.5Z" fill="#297EA6"></path></g><g transform="translate(274 562)"><path d="M0 -15L13 -7.5L13 7.5L0 15L-13 7.5L-13 -7.5Z" fill="#297EA6"></path></g><g transform="translate(615 5)"><path d="M0 -12L10.4 -6L10.4 6L0 12L-10.4 6L-10.4 -6Z" fill="#297EA6"></path></g><g transform="translate(859 429)"><path d="M0 -16L13.9 -8L13.9 8L0 16L-13.9 8L-13.9 -8Z" fill="#297EA6"></path></g><g transform="translate(64 573)"><path d="M0 -12L10.4 -6L10.4 6L0 12L-10.4 6L-10.4 -6Z" fill="#297EA6"></path></g><g transform="translate(679 112)"><path d="M0 -10L8.7 -5L8.7 5L0 10L-8.7 5L-8.7 -5Z" fill="#297EA6"></path></g><g transform="translate(824 482)"><path d="M0 -10L8.7 -5L8.7 5L0 10L-8.7 5L-8.7 -5Z" fill="#297EA6"></path></g><g transform="translate(189 491)"><path d="M0 -15L13 -7.5L13 7.5L0 15L-13 7.5L-13 -7.5Z" fill="#297EA6"></path></g><g transform="translate(757 497)"><path d="M0 -11L9.5 -5.5L9.5 5.5L0 11L-9.5 5.5L-9.5 -5.5Z" fill="#297EA6"></path></g><g transform="translate(825 20)"><path d="M0 -16L13.9 -8L13.9 8L0 16L-13.9 8L-13.9 -8Z" fill="#297EA6"></path></g><g transform="translate(590 507)"><path d="M0 -11L9.5 -5.5L9.5 5.5L0 11L-9.5 5.5L-9.5 -5.5Z" fill="#297EA6"></path></g><g transform="translate(4 447)"><path d="M0 -12L10.4 -6L10.4 6L0 12L-10.4 6L-10.4 -6Z" fill="#297EA6"></path></g><g transform="translate(880 143)"><path d="M0 -16L13.9 -8L13.9 8L0 16L-13.9 8L-13.9 -8Z" fill="#297EA6"></path></g><g transform="translate(866 104)"><path d="M0 -12L10.4 -6L10.4 6L0 12L-10.4 6L-10.4 -6Z" fill="#297EA6"></path></g><g transform="translate(91 370)"><path d="M0 -11L9.5 -5.5L9.5 5.5L0 11L-9.5 5.5L-9.5 -5.5Z" fill="#297EA6"></path></g><g transform="translate(95 598)"><path d="M0 -13L11.3 -6.5L11.3 6.5L0 13L-11.3 6.5L-11.3 -6.5Z" fill="#297EA6"></path></g><g transform="translate(80 527)"><path d="M0 -14L12.1 -7L12.1 7L0 14L-12.1 7L-12.1 -7Z" fill="#297EA6"></path></g><g transform="translate(543 470)"><path d="M0 -10L8.7 -5L8.7 5L0 10L-8.7 5L-8.7 -5Z" fill="#297EA6"></path></g><g transform="translate(735 168)"><path d="M0 -11L9.5 -5.5L9.5 5.5L0 11L-9.5 5.5L-9.5 -5.5Z" fill="#297EA6"></path></g><g transform="translate(657 73)"><path d="M0 -12L10.4 -6L10.4 6L0 12L-10.4 6L-10.4 -6Z" fill="#297EA6"></path></g><g transform="translate(526 597)"><path d="M0 -13L11.3 -6.5L11.3 6.5L0 13L-11.3 6.5L-11.3 -6.5Z" fill="#297EA6"></path></g><g transform="translate(377 586)"><path d="M0 -12L10.4 -6L10.4 6L0 12L-10.4 6L-10.4 -6Z" fill="#297EA6"></path></g><g transform="translate(621 241)"><path d="M0 -13L11.3 -6.5L11.3 6.5L0 13L-11.3 6.5L-11.3 -6.5Z" fill="#297EA6"></path></g><g transform="translate(696 226)"><path d="M0 -13L11.3 -6.5L11.3 6.5L0 13L-11.3 6.5L-11.3 -6.5Z" fill="#297EA6"></path></g><g transform="translate(112 154)"><path d="M0 -16L13.9 -8L13.9 8L0 16L-13.9 8L-13.9 -8Z" fill="#297EA6"></path></g><g transform="translate(619 383)"><path d="M0 -15L13 -7.5L13 7.5L0 15L-13 7.5L-13 -7.5Z" fill="#297EA6"></path></g><g transform="translate(894 73)"><path d="M0 -13L11.3 -6.5L11.3 6.5L0 13L-11.3 6.5L-11.3 -6.5Z" fill="#297EA6"></path></g><g transform="translate(246 6)"><path d="M0 -10L8.7 -5L8.7 5L0 10L-8.7 5L-8.7 -5Z" fill="#297EA6"></path></g><g transform="translate(484 374)"><path d="M0 -14L12.1 -7L12.1 7L0 14L-12.1 7L-12.1 -7Z" fill="#297EA6"></path></g><g transform="translate(212 278)"><path d="M0 -11L9.5 -5.5L9.5 5.5L0 11L-9.5 5.5L-9.5 -5.5Z" fill="#297EA6"></path></g><g transform="translate(702 308)"><path d="M0 -13L11.3 -6.5L11.3 6.5L0 13L-11.3 6.5L-11.3 -6.5Z" fill="#297EA6"></path></g><g transform="translate(314 576)"><path d="M0 -16L13.9 -8L13.9 8L0 16L-13.9 8L-13.9 -8Z" fill="#297EA6"></path></g><g transform="translate(543 206)"><path d="M0 -12L10.4 -6L10.4 6L0 12L-10.4 6L-10.4 -6Z" fill="#297EA6"></path></g><g transform="translate(15 379)"><path d="M0 -10L8.7 -5L8.7 5L0 10L-8.7 5L-8.7 -5Z" fill="#297EA6"></path></g><g transform="translate(149 256)"><path d="M0 -10L8.7 -5L8.7 5L0 10L-8.7 5L-8.7 -5Z" fill="#297EA6"></path></g><g transform="translate(18 584)"><path d="M0 -16L13.9 -8L13.9 8L0 16L-13.9 8L-13.9 -8Z" fill="#297EA6"></path></g><g transform="translate(637 524)"><path d="M0 -15L13 -7.5L13 7.5L0 15L-13 7.5L-13 -7.5Z" fill="#297EA6"></path></g><g transform="translate(569 549)"><path d="M0 -15L13 -7.5L13 7.5L0 15L-13 7.5L-13 -7.5Z" fill="#297EA6"></path></g><g transform="translate(308 254)"><path d="M0 -10L8.7 -5L8.7 5L0 10L-8.7 5L-8.7 -5Z" fill="#297EA6"></path></g><g transform="translate(132 539)"><path d="M0 -14L12.1 -7L12.1 7L0 14L-12.1 7L-12.1 -7Z" fill="#297EA6"></path></g><g transform="translate(82 288)"><path d="M0 -14L12.1 -7L12.1 7L0 14L-12.1 7L-12.1 -7Z" fill="#297EA6"></path></g><g transform="translate(147 49)"><path d="M0 -13L11.3 -6.5L11.3 6.5L0 13L-11.3 6.5L-11.3 -6.5Z" fill="#297EA6"></path></g><g transform="translate(49 4)"><path d="M0 -12L10.4 -6L10.4 6L0 12L-10.4 6L-10.4 -6Z" fill="#297EA6"></path></g><g transform="translate(548 93)"><path d="M0 -16L13.9 -8L13.9 8L0 16L-13.9 8L-13.9 -8Z" fill="#297EA6"></path></g><g transform="translate(15 16)"><path d="M0 -13L11.3 -6.5L11.3 6.5L0 13L-11.3 6.5L-11.3 -6.5Z" fill="#297EA6"></path></g><g transform="translate(255 209)"><path d="M0 -13L11.3 -6.5L11.3 6.5L0 13L-11.3 6.5L-11.3 -6.5Z" fill="#297EA6"></path></g><g transform="translate(515 336)"><path d="M0 -15L13 -7.5L13 7.5L0 15L-13 7.5L-13 -7.5Z" fill="#297EA6"></path></g><g transform="translate(641 283)"><path d="M0 -10L8.7 -5L8.7 5L0 10L-8.7 5L-8.7 -5Z" fill="#297EA6"></path></g><g transform="translate(655 598)"><path d="M0 -16L13.9 -8L13.9 8L0 16L-13.9 8L-13.9 -8Z" fill="#297EA6"></path></g><g transform="translate(176 394)"><path d="M0 -15L13 -7.5L13 7.5L0 15L-13 7.5L-13 -7.5Z" fill="#297EA6"></path></g><g transform="translate(309 483)"><path d="M0 -15L13 -7.5L13 7.5L0 15L-13 7.5L-13 -7.5Z" fill="#297EA6"></path></g><g transform="translate(227 135)"><path d="M0 -10L8.7 -5L8.7 5L0 10L-8.7 5L-8.7 -5Z" fill="#297EA6"></path></g><g transform="translate(392 549)"><path d="M0 -16L13.9 -8L13.9 8L0 16L-13.9 8L-13.9 -8Z" fill="#297EA6"></path></g><g transform="translate(398 2)"><path d="M0 -11L9.5 -5.5L9.5 5.5L0 11L-9.5 5.5L-9.5 -5.5Z" fill="#297EA6"></path></g><g transform="translate(850 512)"><path d="M0 -11L9.5 -5.5L9.5 5.5L0 11L-9.5 5.5L-9.5 -5.5Z" fill="#297EA6"></path></g><g transform="translate(258 407)"><path d="M0 -12L10.4 -6L10.4 6L0 12L-10.4 6L-10.4 -6Z" fill="#297EA6"></path></g><g transform="translate(201 10)"><path d="M0 -14L12.1 -7L12.1 7L0 14L-12.1 7L-12.1 -7Z" fill="#297EA6"></path></g><g transform="translate(533 128)"><path d="M0 -13L11.3 -6.5L11.3 6.5L0 13L-11.3 6.5L-11.3 -6.5Z" fill="#297EA6"></path></g><g transform="translate(393 158)"><path d="M0 -10L8.7 -5L8.7 5L0 10L-8.7 5L-8.7 -5Z" fill="#297EA6"></path></g><g transform="translate(581 24)"><path d="M0 -14L12.1 -7L12.1 7L0 14L-12.1 7L-12.1 -7Z" fill="#297EA6"></path></g><g transform="translate(888 2)"><path d="M0 -12L10.4 -6L10.4 6L0 12L-10.4 6L-10.4 -6Z" fill="#297EA6"></path></g><g transform="translate(896 549)"><path d="M0 -13L11.3 -6.5L11.3 6.5L0 13L-11.3 6.5L-11.3 -6.5Z" fill="#297EA6"></path></g><g transform="translate(889 300)"><path d="M0 -16L13.9 -8L13.9 8L0 16L-13.9 8L-13.9 -8Z" fill="#297EA6"></path></g><g transform="translate(767 239)"><path d="M0 -16L13.9 -8L13.9 8L0 16L-13.9 8L-13.9 -8Z" fill="#297EA6"></path></g><g transform="translate(894 378)"><path d="M0 -15L13 -7.5L13 7.5L0 15L-13 7.5L-13 -7.5Z" fill="#297EA6"></path></g><g transform="translate(3 482)"><path d="M0 -14L12.1 -7L12.1 7L0 14L-12.1 7L-12.1 -7Z" fill="#297EA6"></path></g><g transform="translate(470 4)"><path d="M0 -10L8.7 -5L8.7 5L0 10L-8.7 5L-8.7 -5Z" fill="#297EA6"></path></g><g transform="translate(338 45)"><path d="M0 -10L8.7 -5L8.7 5L0 10L-8.7 5L-8.7 -5Z" fill="#297EA6"></path></g><g transform="translate(122 505)"><path d="M0 -12L10.4 -6L10.4 6L0 12L-10.4 6L-10.4 -6Z" fill="#297EA6"></path></g><g transform="translate(16 285)"><path d="M0 -11L9.5 -5.5L9.5 5.5L0 11L-9.5 5.5L-9.5 -5.5Z" fill="#297EA6"></path></g><g transform="translate(408 467)"><path d="M0 -16L13.9 -8L13.9 8L0 16L-13.9 8L-13.9 -8Z" fill="#297EA6"></path></g><g transform="translate(790 71)"><path d="M0 -14L12.1 -7L12.1 7L0 14L-12.1 7L-12.1 -7Z" fill="#297EA6"></path></g><g transform="translate(780 402)"><path d="M0 -12L10.4 -6L10.4 6L0 12L-10.4 6L-10.4 -6Z" fill="#297EA6"></path></g><g transform="translate(290 522)"><path d="M0 -16L13.9 -8L13.9 8L0 16L-13.9 8L-13.9 -8Z" fill="#297EA6"></path></g><g transform="translate(118 10)"><path d="M0 -16L13.9 -8L13.9 8L0 16L-13.9 8L-13.9 -8Z" fill="#297EA6"></path></g><g transform="translate(136 186)"><path d="M0 -12L10.4 -6L10.4 6L0 12L-10.4 6L-10.4 -6Z" fill="#297EA6"></path></g><g transform="translate(837 338)"><path d="M0 -14L12.1 -7L12.1 7L0 14L-12.1 7L-12.1 -7Z" fill="#297EA6"></path></g><g transform="translate(150 102)"><path d="M0 -15L13 -7.5L13 7.5L0 15L-13 7.5L-13 -7.5Z" fill="#297EA6"></path></g><g transform="translate(98 558)"><path d="M0 -12L10.4 -6L10.4 6L0 12L-10.4 6L-10.4 -6Z" fill="#297EA6"></path></g><g transform="translate(506 492)"><path d="M0 -14L12.1 -7L12.1 7L0 14L-12.1 7L-12.1 -7Z" fill="#297EA6"></path></g><g transform="translate(762 588)"><path d="M0 -14L12.1 -7L12.1 7L0 14L-12.1 7L-12.1 -7Z" fill="#297EA6"></path></g><g transform="translate(785 473)"><path d="M0 -10L8.7 -5L8.7 5L0 10L-8.7 5L-8.7 -5Z" fill="#297EA6"></path></g><g transform="translate(321 301)"><path d="M0 -11L9.5 -5.5L9.5 5.5L0 11L-9.5 5.5L-9.5 -5.5Z" fill="#297EA6"></path></g><g transform="translate(265 43)"><path d="M0 -12L10.4 -6L10.4 6L0 12L-10.4 6L-10.4 -6Z" fill="#297EA6"></path></g><g transform="translate(125 357)"><path d="M0 -14L12.1 -7L12.1 7L0 14L-12.1 7L-12.1 -7Z" fill="#297EA6"></path></g><g transform="translate(339 225)"><path d="M0 -12L10.4 -6L10.4 6L0 12L-10.4 6L-10.4 -6Z" fill="#297EA6"></path></g><g transform="translate(658 493)"><path d="M0 -15L13 -7.5L13 7.5L0 15L-13 7.5L-13 -7.5Z" fill="#297EA6"></path></g><g transform="translate(453 389)"><path d="M0 -15L13 -7.5L13 7.5L0 15L-13 7.5L-13 -7.5Z" fill="#297EA6"></path></g><g transform="translate(300 112)"><path d="M0 -14L12.1 -7L12.1 7L0 14L-12.1 7L-12.1 -7Z" fill="#297EA6"></path></g><g transform="translate(841 147)"><path d="M0 -11L9.5 -5.5L9.5 5.5L0 11L-9.5 5.5L-9.5 -5.5Z" fill="#297EA6"></path></g><g transform="translate(443 126)"><path d="M0 -12L10.4 -6L10.4 6L0 12L-10.4 6L-10.4 -6Z" fill="#297EA6"></path></g><g transform="translate(238 557)"><path d="M0 -10L8.7 -5L8.7 5L0 10L-8.7 5L-8.7 -5Z" fill="#297EA6"></path></g><g transform="translate(2 212)"><path d="M0 -15L13 -7.5L13 7.5L0 15L-13 7.5L-13 -7.5Z" fill="#297EA6"></path></g><g transform="translate(179 317)"><path d="M0 -11L9.5 -5.5L9.5 5.5L0 11L-9.5 5.5L-9.5 -5.5Z" fill="#297EA6"></path></g><g transform="translate(6 51)"><path d="M0 -13L11.3 -6.5L11.3 6.5L0 13L-11.3 6.5L-11.3 -6.5Z" fill="#297EA6"></path></g><g transform="translate(201 159)"><path d="M0 -16L13.9 -8L13.9 8L0 16L-13.9 8L-13.9 -8Z" fill="#297EA6"></path></g><g transform="translate(209 210)"><path d="M0 -16L13.9 -8L13.9 8L0 16L-13.9 8L-13.9 -8Z" fill="#297EA6"></path></g><g transform="translate(485 454)"><path d="M0 -14L12.1 -7L12.1 7L0 14L-12.1 7L-12.1 -7Z" fill="#297EA6"></path></g><g transform="translate(649 218)"><path d="M0 -11L9.5 -5.5L9.5 5.5L0 11L-9.5 5.5L-9.5 -5.5Z" fill="#297EA6"></path></g><g transform="translate(94 407)"><path d="M0 -15L13 -7.5L13 7.5L0 15L-13 7.5L-13 -7.5Z" fill="#297EA6"></path></g><g transform="translate(283 598)"><path d="M0 -10L8.7 -5L8.7 5L0 10L-8.7 5L-8.7 -5Z" fill="#297EA6"></path></g><g transform="translate(414 239)"><path d="M0 -14L12.1 -7L12.1 7L0 14L-12.1 7L-12.1 -7Z" fill="#297EA6"></path></g><g transform="translate(885 454)"><path d="M0 -10L8.7 -5L8.7 5L0 10L-8.7 5L-8.7 -5Z" fill="#297EA6"></path></g><g transform="translate(135 221)"><path d="M0 -16L13.9 -8L13.9 8L0 16L-13.9 8L-13.9 -8Z" fill="#297EA6"></path></g><g transform="translate(278 337)"><path d="M0 -12L10.4 -6L10.4 6L0 12L-10.4 6L-10.4 -6Z" fill="#297EA6"></path></g><g transform="translate(557 435)"><path d="M0 -13L11.3 -6.5L11.3 6.5L0 13L-11.3 6.5L-11.3 -6.5Z" fill="#297EA6"></path></g><g transform="translate(598 270)"><path d="M0 -13L11.3 -6.5L11.3 6.5L0 13L-11.3 6.5L-11.3 -6.5Z" fill="#297EA6"></path></g></g></svg>