<?xml version="1.0" standalone="no"?>
<!DOCTYPE svg PUBLIC "-//W3C//DTD SVG 20010904//EN"
 "http://www.w3.org/TR/2001/REC-SVG-20010904/DTD/svg10.dtd">
<svg version="1.0" xmlns="http://www.w3.org/2000/svg"
 width="500.000000pt" height="500.000000pt" viewBox="0 0 500.000000 500.000000"
 preserveAspectRatio="xMidYMid meet">

<g transform="translate(0.000000,500.000000) scale(0.100000,-0.100000)"
fill="#000000" stroke="none">
<path d="M2452 4980 l-22 -21 0 -599 0 -599 -47 -6 c-247 -32 -451 -112 -628
-245 l-80 -60 -420 420 c-403 403 -422 420 -458 420 -49 0 -77 -28 -77 -77 0
-36 17 -55 420 -458 l421 -421 -45 -57 c-133 -172 -236 -423 -253 -618 l-6
-66 -601 -6 -601 -5 -22 -27 c-30 -34 -29 -75 0 -103 l23 -22 597 0 c470 0
598 -3 601 -12 2 -7 9 -53 15 -103 26 -196 138 -448 263 -593 16 -19 28 -38
26 -43 -2 -5 -191 -197 -420 -427 -401 -400 -418 -419 -418 -455 0 -49 28 -77
77 -77 36 0 55 17 455 418 230 229 421 418 426 419 4 2 43 -24 87 -57 95 -72
270 -160 375 -190 41 -12 122 -29 180 -39 l105 -17 3 -601 2 -602 26 -20 c34
-27 64 -27 98 0 l26 20 2 602 3 601 105 17 c201 32 410 119 560 233 30 22 60
45 68 50 11 6 122 -99 436 -413 404 -404 423 -421 459 -421 49 0 77 28 77 77
0 36 -17 55 -422 460 -395 395 -420 423 -407 441 141 196 168 243 220 384 35
97 47 146 63 258 l12 85 599 3 c599 2 599 2 622 24 29 27 30 76 3 106 l-21 22
-600 0 c-471 0 -600 3 -603 13 -2 6 -9 51 -15 98 -27 208 -148 482 -269 611
-14 15 -24 30 -21 32 2 3 192 193 422 423 400 401 417 420 417 456 0 24 -7 44
-20 57 -13 13 -33 20 -57 20 -36 0 -55 -17 -456 -417 -230 -230 -420 -420
-423 -422 -2 -3 -17 7 -32 21 -87 82 -265 179 -416 227 -78 25 -252 61 -298
61 -5 0 -8 270 -8 600 l0 599 -22 21 c-12 11 -35 20 -53 20 -18 0 -41 -9 -53
-20z m269 -1400 c222 -45 402 -145 565 -312 97 -100 139 -157 192 -263 193
-384 153 -818 -109 -1165 -159 -211 -411 -363 -679 -411 -84 -14 -301 -14
-376 1 -227 45 -423 147 -580 304 -156 157 -258 346 -306 571 -18 87 -15 342
5 433 97 426 427 752 851 842 127 26 307 26 437 0z"/>
</g>
</svg>
