<?xml version="1.0" standalone="no"?>
<!DOCTYPE svg PUBLIC "-//W3C//DTD SVG 20010904//EN"
 "http://www.w3.org/TR/2001/REC-SVG-20010904/DTD/svg10.dtd">
<svg version="1.0" xmlns="http://www.w3.org/2000/svg"
 width="512.000000pt" height="512.000000pt" viewBox="0 0 512.000000 512.000000"
 preserveAspectRatio="xMidYMid meet">

<g transform="translate(0.000000,512.000000) scale(0.100000,-0.100000)"
fill="#000000" stroke="none">
<path d="M2519 5101 c-24 -19 -24 -19 -24 -251 0 -232 0 -232 24 -251 31 -25
63 -24 89 4 21 22 22 31 22 248 0 223 0 226 -23 247 -29 27 -57 28 -88 3z"/>
<path d="M926 4445 c-24 -24 -28 -52 -12 -82 8 -15 82 -94 164 -175 116 -115
156 -148 176 -148 36 0 66 33 66 72 0 28 -20 52 -158 190 -137 137 -162 158
-189 158 -17 0 -38 -7 -47 -15z"/>
<path d="M3963 4297 c-174 -174 -186 -194 -143 -237 44 -44 64 -31 238 143
174 175 185 192 139 235 -45 42 -60 33 -234 -141z"/>
<path d="M2416 4259 c-249 -24 -504 -122 -717 -275 -95 -69 -241 -214 -319
-319 -113 -152 -211 -373 -255 -575 -23 -104 -31 -355 -15 -477 26 -212 112
-439 237 -627 81 -123 253 -299 371 -380 l82 -58 0 -173 c0 -96 5 -197 11
-225 13 -59 59 -124 112 -159 l37 -24 0 -196 c0 -108 5 -225 11 -261 56 -348
397 -576 731 -491 179 46 319 158 397 316 53 110 63 174 62 412 l-2 212 36 17
c51 24 113 98 130 157 11 37 15 101 15 238 l0 187 65 47 c266 189 455 448 554
758 50 158 65 261 65 447 -1 182 -20 298 -74 462 -122 365 -408 685 -760 852
-165 78 -304 116 -499 135 -115 12 -146 12 -275 0z m342 -145 c587 -87 1038
-547 1123 -1143 16 -112 6 -340 -20 -451 -38 -164 -108 -327 -204 -470 -67
-100 -251 -282 -359 -354 -50 -34 -89 -67 -92 -80 -3 -11 -6 -115 -6 -231 0
-193 -2 -213 -20 -243 -38 -62 -35 -62 -610 -62 -575 0 -572 0 -610 62 -18 30
-20 50 -20 245 0 116 -3 218 -6 227 -3 8 -52 45 -107 82 -293 194 -505 516
-573 871 -23 120 -23 348 0 468 52 264 165 488 344 676 305 321 727 468 1160
403z m272 -3309 l0 -135 -465 0 -465 0 0 135 0 135 465 0 465 0 0 -135z m-15
-307 c-12 -58 -61 -152 -106 -202 -177 -199 -485 -210 -671 -23 -59 58 -114
156 -125 220 l-6 37 457 0 458 0 -7 -32z"/>
<path d="M2516 3922 c-23 -26 -24 -67 -2 -91 13 -14 43 -21 129 -30 255 -25
456 -119 628 -290 178 -179 275 -394 295 -657 6 -75 10 -87 33 -105 28 -23 67
-19 89 9 20 25 9 216 -17 315 -55 209 -146 369 -296 523 -204 209 -457 326
-735 341 -98 5 -106 4 -124 -15z"/>
<path d="M260 2848 c-25 -28 -26 -62 0 -88 19 -19 33 -20 254 -20 231 0 235 0
250 22 22 31 20 64 -4 88 -19 19 -33 20 -250 20 -223 0 -230 -1 -250 -22z"/>
<path d="M4367 2850 c-34 -27 -36 -68 -4 -98 22 -21 31 -22 246 -22 l222 0 24
25 c30 29 32 55 6 86 -19 24 -22 24 -243 27 -216 3 -225 2 -251 -18z"/>
</g>
</svg>
